<svg width="19" height="18" viewBox="0 0 19 18" fill="none" xmlns="http://www.w3.org/2000/svg">
<g clip-path="url(#clip0_3945_2984)">
<path d="M14.7266 13.8164H4.03908C3.80009 13.8164 3.57322 13.52 3.51174 13.2891L1.80683 6.60446C1.78132 6.50869 1.78331 6.40766 1.81259 6.31297C1.84186 6.21827 1.89723 6.13375 1.97234 6.06908C2.04745 6.00441 2.13927 5.96222 2.23726 5.94734C2.33526 5.93247 2.43546 5.94551 2.52638 5.98497L6.6373 7.76958L8.93061 3.94739C8.97748 3.86931 9.04376 3.8047 9.123 3.75984C9.20225 3.71498 9.29176 3.6914 9.38282 3.69141C9.47388 3.69141 9.56339 3.71499 9.64263 3.75986C9.72188 3.80472 9.78815 3.86934 9.83501 3.94742L12.1283 7.76961L16.2393 5.98501C16.3302 5.94555 16.4304 5.93251 16.5284 5.94739C16.6264 5.96227 16.7182 6.00446 16.7933 6.06912C16.8684 6.13379 16.9238 6.21831 16.9531 6.313C16.9824 6.40769 16.9844 6.50872 16.9589 6.6045L15.2539 13.2891C15.1924 13.52 14.9656 13.8164 14.7266 13.8164Z" fill="#FFCB49"/>
<path d="M16.7972 6.06909C16.7221 6.00443 16.6302 5.96224 16.5322 5.94737C16.4343 5.93249 16.3341 5.94554 16.2431 5.985L12.1322 7.7696L9.83886 3.94741C9.79202 3.86933 9.72575 3.80471 9.64651 3.75985C9.56728 3.71499 9.47777 3.69141 9.38672 3.69141V13.8164H14.7305C14.9695 13.8164 15.1963 13.52 15.2578 13.2891L16.9627 6.60445C16.9882 6.50868 16.9862 6.40765 16.9569 6.31296C16.9277 6.21827 16.8723 6.13375 16.7972 6.06909ZM6.57422 11.2852C6.28298 11.2852 6.04688 11.5213 6.04688 11.8125V13.2891C6.04688 13.5803 6.28298 13.8164 6.57422 13.8164C6.86545 13.8164 7.10156 13.5803 7.10156 13.2891V11.8125C7.10156 11.5213 6.86545 11.2852 6.57422 11.2852Z" fill="#FFAD09"/>
<path d="M12.1992 11.2852C11.908 11.2852 11.6719 11.5213 11.6719 11.8125V13.2891C11.6719 13.5803 11.908 13.8164 12.1992 13.8164C12.4905 13.8164 12.7266 13.5803 12.7266 13.2891V11.8125C12.7266 11.5213 12.4905 11.2852 12.1992 11.2852Z" fill="#FF8C00"/>
<path d="M9.38672 10.4414C9.09548 10.4414 8.85938 10.6775 8.85938 10.9688V13.2891C8.85938 13.5803 9.09548 13.8164 9.38672 13.8164C9.67795 13.8164 9.91406 13.5803 9.91406 13.2891V10.9688C9.91406 10.6775 9.67795 10.4414 9.38672 10.4414Z" fill="#FFAD09"/>
<path d="M9.38281 10.4414V13.8164C9.67405 13.8164 9.91016 13.5803 9.91016 13.2891V10.9688C9.91016 10.6775 9.67405 10.4414 9.38281 10.4414Z" fill="#FF8C00"/>
<path d="M3.51562 13.2891V15.1875C3.51562 15.4787 3.75173 15.7148 4.04297 15.7148H14.7305C15.0217 15.7148 15.2578 15.4787 15.2578 15.1875V13.2891H3.51562Z" fill="#FFEB7A"/>
<path d="M9.38281 13.2891V15.7148H14.7266C15.0178 15.7148 15.2539 15.4787 15.2539 15.1875V13.2891H9.38281Z" fill="#FFCB49"/>
<path d="M1.96484 7.69922C2.83858 7.69922 3.54688 6.99092 3.54688 6.11719C3.54688 5.24346 2.83858 4.53516 1.96484 4.53516C1.09111 4.53516 0.382812 5.24346 0.382812 6.11719C0.382812 6.99092 1.09111 7.69922 1.96484 7.69922Z" fill="#FFEB7A"/>
<path d="M16.8008 7.69922C17.6745 7.69922 18.3828 6.99092 18.3828 6.11719C18.3828 5.24346 17.6745 4.53516 16.8008 4.53516C15.927 4.53516 15.2188 5.24346 15.2188 6.11719C15.2188 6.99092 15.927 7.69922 16.8008 7.69922Z" fill="#FFCB49"/>
<path d="M9.37891 5.44922C10.2526 5.44922 10.9609 4.74092 10.9609 3.86719C10.9609 2.99346 10.2526 2.28516 9.37891 2.28516C8.50517 2.28516 7.79688 2.99346 7.79688 3.86719C7.79688 4.74092 8.50517 5.44922 9.37891 5.44922Z" fill="#FFEB7A"/>
<path d="M9.38281 2.28516V5.44922C10.2551 5.44922 10.9648 4.73955 10.9648 3.86719C10.9648 2.99482 10.2552 2.28516 9.38281 2.28516Z" fill="#FFCB49"/>
</g>
<defs>
<clipPath id="clip0_3945_2984">
<rect width="18" height="18" fill="white" transform="translate(0.382812)"/>
</clipPath>
</defs>
</svg>
