<svg xmlns="http://www.w3.org/2000/svg" viewBox="0 0 1500 1500" width="1500" height="1500" preserveAspectRatio="xMidYMid meet" style="width: 100%; height: 100%; transform: translate3d(0px, 0px, 0px);"><defs fill="#000000"><clipPath id="__lottie_element_2" fill="#000000"><rect width="1500" height="1500" x="0" y="0" fill="#000000"/></clipPath><linearGradient id="__lottie_element_6" spreadMethod="pad" gradientUnits="userSpaceOnUse" x1="-247.10899353027344" y1="-374.218994140625" x2="455.6090087890625" y2="340.81201171875" fill="#000000"><stop offset="0%" stop-color="#03e2cd" fill="#000000"/><stop offset="50%" stop-color="#548afc" fill="#000000"/><stop offset="100%" stop-color="#6254fc" fill="#000000"/></linearGradient></defs><g clip-path="url(#__lottie_element_2)"><g transform="matrix(1,0,0,1,750,750)" opacity="1" style="display: block;"><g opacity="1" transform="matrix(1,0,0,1,0,0)"><path fill="url(#__lottie_element_6)" fill-opacity="1" d=" M49.695884704589844,-569.4894409179688 C-41.689266204833984,-567.1753540039062 -144.9020233154297,-506.0528564453125 -241.42173767089844,-435.9612121582031 C-382.9671630859375,-333.3011169433594 -495.7510681152344,-182.93203735351562 -491.0910949707031,-18.598251342773438 C-485.2441711425781,157.18482971191406 -389.49749755859375,468.415283203125 -178.81858825683594,515.478759765625 C-59.49589920043945,543.7850952148438 74.2984848022461,481.2777099609375 177.9414825439453,465.7737121582031 C310.9754943847656,445.8731384277344 449.3114013671875,327.3648376464844 498.1874084472656,244.40382385253906 C574.1874389648438,115.4038314819336 533.441650390625,-35.81785583496094 477.0986328125,-193.2996368408203 C424.03704833984375,-340.57476806640625 320.1529541015625,-576.9835815429688 49.695884704589844,-569.4894409179688z"/></g></g></g></svg>